<?xml version="1.0" encoding="iso-8859-1"?>
<!-- Generator: Adobe Illustrator 18.0.0, SVG Export Plug-In . SVG Version: 6.00 Build 0)  -->
<!DOCTYPE svg PUBLIC "-//W3C//DTD SVG 1.1//EN" "http://www.w3.org/Graphics/SVG/1.1/DTD/svg11.dtd">
<svg version="1.1" id="Capa_1" xmlns="http://www.w3.org/2000/svg" xmlns:xlink="http://www.w3.org/1999/xlink" x="0px" y="0px"
	 viewBox="0 0 297.002 297.002" style="enable-background:new 0 0 297.002 297.002;" xml:space="preserve">
<path d="M260.646,100.115l-16.105-40.145c-1.528-3.809-5.221-6.307-9.326-6.307h-13.117c-7.201-8.539-24.742-28.446-38.359-36.63
	c-4.99-3-11.088-4.459-18.636-4.459c-6.974,0-13.679,1.707-19.642,4.924C136.506,6.608,122.983,0,108.535,0
	C90.145,0,73.571,10.545,65.636,26.766c-17.462,5.031-30.001,21.225-30.001,39.86c0,11.141,4.289,26.933,16.327,37.844
	c7.694,6.975,17.362,10.883,28.32,11.541v148.423c0,2.097,0.655,4.14,1.874,5.845l16.1,22.518c1.888,2.64,4.931,4.206,8.176,4.206
	h128.783c3.244,0,6.289-1.566,8.174-4.204l16.104-22.52c1.219-1.704,1.874-3.748,1.874-5.845V103.856
	C261.367,102.574,261.123,101.305,260.646,100.115z M100.381,165.346h27.833c5.548,0,10.049-4.499,10.049-10.05
	c0-17.958,14.607-32.568,32.563-32.568c17.955,0,32.564,14.61,32.564,32.568c0,5.551,4.5,10.05,10.048,10.05h27.832v34.594h-27.832
	c-5.548,0-10.048,4.499-10.048,10.049c0,17.96-14.609,32.571-32.564,32.571c-17.956,0-32.563-14.611-32.563-32.571
	c0-5.55-4.501-10.049-10.049-10.049h-27.833V165.346z M241.27,105.797v39.451h-18.744c-4.702-24.251-26.096-42.618-51.7-42.618
	c-25.602,0-46.996,18.367-51.699,42.618h-18.745v-39.451l12.848-32.035h115.189L241.27,105.797z M55.732,66.626
	c0-10.658,7.947-19.764,18.485-21.181c3.766-0.508,6.924-3.096,8.162-6.688c3.844-11.16,14.354-18.659,26.155-18.659
	c10.736,0,20.595,6.308,25.115,16.069c1.381,2.987,4.142,5.109,7.385,5.678c3.247,0.569,6.563-0.49,8.876-2.831
	c4.047-4.089,9.442-6.342,15.191-6.342c3.744,0,6.53,0.534,8.282,1.588c6.213,3.733,14.499,11.687,21.773,19.403h-88.726
	c-4.106,0-7.801,2.497-9.327,6.308L82.65,96.012c-6.904-0.18-12.671-2.334-17.19-6.432C58.28,83.071,55.732,73.147,55.732,66.626z
	 M230.047,276.903H111.599l-11.218-15.692v-41.174h18.745c4.703,24.253,26.097,42.62,51.699,42.62
	c25.605,0,46.998-18.367,51.7-42.62h18.744v41.173L230.047,276.903z"/>
<g>
</g>
<g>
</g>
<g>
</g>
<g>
</g>
<g>
</g>
<g>
</g>
<g>
</g>
<g>
</g>
<g>
</g>
<g>
</g>
<g>
</g>
<g>
</g>
<g>
</g>
<g>
</g>
<g>
</g>
</svg>
