<?xml version="1.0" encoding="iso-8859-1"?>
<!-- Generator: Adobe Illustrator 19.1.0, SVG Export Plug-In . SVG Version: 6.00 Build 0)  -->
<svg version="1.1" id="Capa_1" xmlns="http://www.w3.org/2000/svg" xmlns:xlink="http://www.w3.org/1999/xlink" x="0px" y="0px"
	 viewBox="0 0 69.288 69.288" style="enable-background:new 0 0 69.288 69.288;" xml:space="preserve">
<g>
	<path style="fill:#231F20;" d="M38.601,41.627h-7.914c-3.398,0-6.163,2.765-6.163,6.163v8.069c0,3.398,2.765,6.164,6.163,6.164
		h7.914c3.398,0,6.163-2.765,6.163-6.164v-8.069C44.764,44.393,41.999,41.627,38.601,41.627z M42.299,55.86
		c0,2.039-1.659,3.698-3.698,3.698h-7.914c-2.039,0-3.698-1.659-3.698-3.698v-8.069c0-2.039,1.659-3.698,3.698-3.698h7.914
		c2.039,0,3.698,1.659,3.698,3.698V55.86z"/>
	<path style="fill:#231F20;" d="M46.153,35.145c0.035-0.649,0.054-1.297,0.054-1.935c0-4.721-0.926-9.296-2.606-12.881
		c-0.604-1.288-0.975-2.575-1.118-3.839c3.641-0.908,6.351-4.202,6.351-8.118C48.834,3.755,45.079,0,40.463,0
		c-1.442,0-2.849,0.374-4.093,1.074C35.418,0.385,34.264,0,33.065,0c-2.514,0-4.628,1.612-5.362,3.882
		c-2.845,0.703-4.961,3.276-4.961,6.336c0,2.732,1.69,5.073,4.077,6.044c-0.121,1.339-0.491,2.702-1.131,4.067
		c-1.68,3.584-2.606,8.159-2.606,12.881c0,0.639,0.018,1.286,0.054,1.935c-3.122,0.868-5.419,3.735-5.419,7.13v19.614
		c0,4.08,3.319,7.4,7.4,7.4h19.057c4.08,0,7.4-3.32,7.4-7.4V42.274C51.572,38.88,49.275,36.013,46.153,35.145z M26.439,10.218
		c0-1.543,1.244-2.802,2.781-2.826c1.062,0.042,1.875-0.778,1.904-1.797c0.029-1.064,0.882-1.897,1.941-1.897
		c0.63,0,1.225,0.312,1.593,0.835c0.301,0.429,0.772,0.71,1.293,0.772c0.524,0.062,1.043-0.1,1.439-0.446
		c0.855-0.749,1.946-1.162,3.074-1.162c2.577,0,4.673,2.096,4.673,4.673c0,2.573-2.094,4.669-4.667,4.672
		c-1.02,0.002-1.846,0.829-1.846,1.849v0.001v6.277c0,0.852-0.533,1.592-1.241,1.803c-0.009,0.002-0.018,0.006-0.027,0.008
		c-0.065,0.018-0.133,0.025-0.201,0.034c-0.05,0.006-0.1,0.014-0.152,0.015c-0.057,0.002-0.112-0.004-0.168-0.008
		c-0.057-0.004-0.115-0.007-0.17-0.017c-0.055-0.01-0.107-0.026-0.16-0.041c-0.054-0.015-0.108-0.029-0.159-0.049
		c-0.051-0.02-0.1-0.047-0.149-0.073c-0.048-0.025-0.098-0.048-0.143-0.078c-0.05-0.033-0.096-0.072-0.143-0.111
		c-0.038-0.031-0.079-0.06-0.115-0.095c-0.042-0.041-0.077-0.088-0.115-0.133c-0.034-0.041-0.071-0.078-0.101-0.122
		c-0.021-0.031-0.035-0.065-0.054-0.096c-0.146-0.247-0.235-0.532-0.235-0.84v-6.475c0-1.021-0.828-1.849-1.849-1.849h-4.176
		C27.707,13.044,26.439,11.776,26.439,10.218z M47.874,61.888c0,2.041-1.661,3.702-3.702,3.702H25.116
		c-2.041,0-3.702-1.661-3.702-3.702V42.274c0-2.04,1.66-3.7,3.7-3.7c0.524,0,1.022-0.222,1.373-0.61
		c0.35-0.389,0.52-0.908,0.466-1.428c-0.115-1.115-0.173-2.234-0.173-3.326c0-4.19,0.801-8.208,2.257-11.311
		c0.8-1.709,1.292-3.438,1.465-5.156h1.091v4.626c0,0.352,0.037,0.701,0.105,1.043c0.005,0.023,0.009,0.045,0.013,0.068
		c0.066,0.312,0.163,0.615,0.283,0.909c0.012,0.03,0.021,0.06,0.033,0.09c0.125,0.293,0.281,0.572,0.456,0.839
		c0.015,0.022,0.027,0.046,0.042,0.068c0.18,0.265,0.387,0.512,0.613,0.743c0.016,0.016,0.03,0.032,0.046,0.048
		c0.028,0.028,0.052,0.058,0.08,0.085c0.111,0.105,0.24,0.182,0.357,0.277c0.136,0.109,0.266,0.224,0.412,0.319
		c0.164,0.107,0.338,0.19,0.511,0.278c0.141,0.072,0.277,0.148,0.424,0.208c0.179,0.072,0.366,0.12,0.552,0.172
		c0.16,0.045,0.316,0.093,0.481,0.123c0.183,0.033,0.37,0.043,0.557,0.056c0.133,0.01,0.261,0.04,0.397,0.04
		c0.048,0,0.093-0.013,0.141-0.014c0.049-0.001,0.096,0.009,0.145,0.007c0.248-0.013,0.488-0.049,0.725-0.095
		c0.062-0.012,0.121-0.028,0.182-0.042c0.263-0.062,0.52-0.138,0.766-0.238c0.127-0.05,0.246-0.112,0.369-0.171
		c0.124-0.062,0.245-0.126,0.363-0.197c0.633-0.371,1.182-0.859,1.616-1.447c0.809,2.601,1.244,5.591,1.244,8.674
		c0,1.092-0.059,2.211-0.173,3.326c-0.054,0.521,0.116,1.04,0.466,1.428c0.351,0.388,0.849,0.61,1.373,0.61
		c2.04,0,3.699,1.66,3.699,3.7V61.888z"/>
	<path style="fill:#231F20;" d="M30.503,23.026c0.345,0,0.616-0.284,0.616-0.616c0-0.346-0.271-0.616-0.616-0.616
		c-0.333,0-0.616,0.271-0.616,0.616C29.887,22.743,30.17,23.026,30.503,23.026z"/>
</g>
<g>
</g>
<g>
</g>
<g>
</g>
<g>
</g>
<g>
</g>
<g>
</g>
<g>
</g>
<g>
</g>
<g>
</g>
<g>
</g>
<g>
</g>
<g>
</g>
<g>
</g>
<g>
</g>
<g>
</g>
</svg>
