<?xml version="1.0" encoding="iso-8859-1"?>
<!-- Generator: Adobe Illustrator 19.1.0, SVG Export Plug-In . SVG Version: 6.00 Build 0)  -->
<svg version="1.1" id="Capa_1" xmlns="http://www.w3.org/2000/svg" xmlns:xlink="http://www.w3.org/1999/xlink" x="0px" y="0px"
	 viewBox="0 0 67.695 67.695" style="enable-background:new 0 0 67.695 67.695;" xml:space="preserve">
<g>
	<path style="fill:#231F20;" d="M54.085,17.172c0-3.406-2.154-6.385-5.275-7.51c-0.944-3.396-4.029-5.826-7.642-5.839
		C38.804,1.382,35.565,0,32.136,0c-5.714,0-10.704,3.93-12.15,9.35c-3.628,0.755-6.377,3.992-6.377,7.822
		c0,3.598,2.39,6.646,5.665,7.646c-0.565,1.602-0.845,3.45-0.845,5.588c0,4.658,1.357,10.268,3.628,15.008
		c1.95,4.071,2.255,10.78,0.657,14.667l-0.062,0.155c-0.663,1.664-0.455,3.548,0.557,5.041c1.027,1.514,2.728,2.418,4.553,2.418
		h13.076c1.824,0,3.526-0.904,4.553-2.418c1.012-1.492,1.221-3.377,0.557-5.043l-0.069-0.169c-1.59-3.871-1.286-10.58,0.664-14.65
		c2.272-4.738,3.627-10.349,3.627-15.008c0-2.268-0.321-4.207-0.958-5.875C52.074,23.312,54.085,20.473,54.085,17.172z
		 M43.21,43.816c-2.416,5.042-2.746,12.796-0.743,17.672l0.047,0.116c0.212,0.531,0.144,1.114-0.183,1.598
		c-0.343,0.505-0.887,0.795-1.493,0.795H27.763c-0.606,0-1.15-0.29-1.492-0.796c-0.329-0.483-0.395-1.065-0.184-1.594l0.056-0.137
		c1.996-4.857,1.666-12.611-0.75-17.654c-1.85-3.86-3.016-8.327-3.222-12.205c0.273-0.066,0.476-0.303,0.476-0.587
		c0-0.31-0.224-0.549-0.518-0.597c0-0.007-0.001-0.014-0.001-0.021c0-2.154,0.33-3.879,1.004-5.239h2.848v5.295
		c-0.077-0.034-0.161-0.055-0.252-0.055c-0.333,0-0.616,0.271-0.616,0.616c0,0.333,0.283,0.616,0.616,0.616
		c0.103,0,0.195-0.031,0.279-0.075c0.274,2.805,2.644,5.005,5.52,5.005c2.85,0,5.202-2.161,5.511-4.93h0.401
		c0.344,0,0.616-0.271,0.616-0.616c0-0.345-0.272-0.616-0.616-0.616h-0.365v-5.24h8.393c0.668,1.36,1.006,3.117,1.006,5.239
		C46.474,34.539,45.253,39.553,43.21,43.816z M46.091,21.469H35.225c-1.021,0-1.849,0.828-1.849,1.849v7.704
		c0,1.02-0.829,1.849-1.849,1.849s-1.849-0.829-1.849-1.849v-7.704c0-1.021-0.828-1.849-1.849-1.849h-5.755h-0.468
		c-2.37,0-4.298-1.928-4.298-4.297c0-2.335,1.903-4.258,4.242-4.289c0.91-0.012,1.676-0.684,1.806-1.584
		c0.628-4.334,4.402-7.601,8.78-7.601c2.657,0,5.153,1.176,6.848,3.226c0.401,0.483,1.021,0.729,1.643,0.658l0.223-0.029
		c0.096-0.013,0.19-0.031,0.29-0.031c2.175,0,3.998,1.643,4.24,3.823c0.09,0.809,0.699,1.464,1.5,1.613
		c2.032,0.378,3.507,2.151,3.507,4.215C50.387,19.541,48.46,21.469,46.091,21.469z"/>
	<path style="fill:#231F20;" d="M38.615,60.453h-8.629c-0.341,0-0.616,0.276-0.616,0.616c0,0.341,0.276,0.616,0.616,0.616h8.629
		c0.341,0,0.616-0.276,0.616-0.616C39.231,60.729,38.956,60.453,38.615,60.453z"/>
	<path style="fill:#231F20;" d="M44.835,30.407h-1.233c-0.333,0-0.616,0.271-0.616,0.616c0,0.345,0.283,0.616,0.616,0.616h1.233
		c0.344,0,0.616-0.271,0.616-0.616C45.452,30.679,45.179,30.407,44.835,30.407z"/>
	<path style="fill:#231F20;" d="M41.137,30.407c-0.333,0-0.616,0.271-0.616,0.616c0,0.345,0.283,0.616,0.616,0.616
		c0.344,0,0.616-0.271,0.616-0.616C41.753,30.679,41.481,30.407,41.137,30.407z"/>
</g>
<g>
</g>
<g>
</g>
<g>
</g>
<g>
</g>
<g>
</g>
<g>
</g>
<g>
</g>
<g>
</g>
<g>
</g>
<g>
</g>
<g>
</g>
<g>
</g>
<g>
</g>
<g>
</g>
<g>
</g>
</svg>
