<?xml version="1.0" encoding="iso-8859-1"?>
<!-- Generator: Adobe Illustrator 19.1.0, SVG Export Plug-In . SVG Version: 6.00 Build 0)  -->
<svg version="1.1" id="Capa_1" xmlns="http://www.w3.org/2000/svg" xmlns:xlink="http://www.w3.org/1999/xlink" x="0px" y="0px"
	 viewBox="0 0 59.587 59.587" style="enable-background:new 0 0 59.587 59.587;" xml:space="preserve">
<path style="fill:#231F20;" d="M57.212,8.909C51.588,3.247,43.301,0,34.477,0c-8.823,0-17.11,3.248-22.734,8.91
	c-1.416,1.426-2.228,3.448-2.228,5.548v10.616H6.516v-4.711c0-0.69-0.56-1.25-1.25-1.25H4.685c-0.69,0-1.25,0.56-1.25,1.25v4.711
	H2.396c-1.242,0-2.249,1.007-2.249,2.249v1.047c0,1.242,1.007,2.249,2.249,2.249h7.119v4.052c0,2.099,0.812,4.121,2.228,5.548
	c1.262,1.27,2.663,2.411,4.169,3.429V54.04c0,3.059,2.488,5.547,5.547,5.547h4.326c1.673,0,3.236-0.745,4.29-2.043
	c1.023-1.261,2.538-1.984,4.155-1.984c1.617,0,3.132,0.723,4.156,1.984c1.054,1.298,2.618,2.043,4.29,2.043h4.819
	c3.059,0,5.547-2.488,5.547-5.547V43.648c1.505-1.018,2.907-2.159,4.169-3.429c1.416-1.426,2.228-3.448,2.228-5.548V14.458
	C59.439,12.358,58.627,10.335,57.212,8.909z M28.384,4.291c1.972-0.387,4.014-0.593,6.094-0.593c2.197,0,4.35,0.231,6.425,0.662
	v6.331c-4.125-0.521-8.377-0.552-12.519-0.096V4.291z M28.384,13.034c4.138-0.484,8.4-0.435,12.519,0.117v10.014H28.384V13.034z
	 M28.384,25.631h12.519v10.363c-4.119,0.553-8.381,0.601-12.519,0.118V25.631z M28.384,38.55c1.933,0.213,3.889,0.331,5.847,0.331
	c2.237,0,4.472-0.149,6.672-0.427v6.312c-0.044,0.009-0.087,0.021-0.131,0.03c-0.139,0.028-0.277,0.061-0.417,0.087
	c-0.564,0.107-1.133,0.197-1.706,0.272c-0.16,0.021-0.321,0.036-0.482,0.055c-0.448,0.052-0.899,0.095-1.352,0.128
	c-0.177,0.013-0.354,0.026-0.531,0.036c-0.599,0.034-1.2,0.057-1.806,0.057c-0.605,0-1.207-0.023-1.806-0.057
	c-0.178-0.01-0.355-0.023-0.532-0.036c-0.452-0.033-0.901-0.076-1.348-0.128c-0.162-0.019-0.326-0.034-0.487-0.056
	c-0.572-0.075-1.139-0.165-1.702-0.271c-0.073-0.014-0.146-0.031-0.219-0.046V38.55z M13.214,14.458
	c0-1.131,0.421-2.204,1.154-2.941c1.858-1.87,4.055-3.44,6.491-4.67v5.178c-2.704,0.738-5.283,1.698-7.645,2.906V14.458z
	 M13.214,17.746c2.332-1.32,4.908-2.38,7.645-3.18v8.6h-7.645V17.746z M13.214,25.631h7.645v8.949
	c-2.737-0.801-5.312-1.861-7.645-3.181V25.631z M19.43,41.501c-1.869-1.092-3.576-2.392-5.062-3.888
	c-0.733-0.739-1.154-1.812-1.154-2.943v-0.455c2.362,1.208,4.94,2.168,7.645,2.906v5.146c-0.482-0.244-0.961-0.494-1.426-0.766
	C19.431,41.502,19.43,41.502,19.43,41.501z M49.345,54.04c0,1.02-0.829,1.849-1.849,1.849h-4.819c-0.554,0-1.071-0.246-1.419-0.675
	c-1.729-2.13-4.29-3.351-7.027-3.351c-2.736,0-5.297,1.221-7.026,3.351c-0.348,0.429-0.865,0.675-1.419,0.675H21.46
	c-1.02,0-1.849-0.829-1.849-1.849v-8.253c0.083,0.04,0.169,0.074,0.253,0.114c0.386,0.184,0.776,0.36,1.172,0.528
	c0.174,0.074,0.348,0.148,0.524,0.22c0.37,0.15,0.744,0.291,1.121,0.428c0.187,0.068,0.372,0.14,0.561,0.204
	c0.447,0.153,0.899,0.294,1.355,0.429c0.245,0.073,0.492,0.14,0.739,0.207c0.405,0.11,0.811,0.216,1.222,0.311
	c0.255,0.059,0.512,0.109,0.768,0.162c0.325,0.067,0.649,0.133,0.977,0.191c0.265,0.047,0.531,0.089,0.797,0.13
	c0.335,0.051,0.671,0.098,1.009,0.139c0.254,0.031,0.508,0.062,0.763,0.088c0.383,0.039,0.769,0.068,1.156,0.095
	c0.211,0.014,0.422,0.033,0.634,0.044c0.603,0.031,1.208,0.049,1.817,0.049c0.609,0,1.214-0.019,1.817-0.049
	c0.212-0.011,0.422-0.029,0.633-0.044c0.387-0.027,0.773-0.056,1.157-0.095c0.255-0.026,0.508-0.057,0.762-0.088
	c0.338-0.042,0.675-0.088,1.01-0.14c0.266-0.041,0.532-0.083,0.796-0.13c0.329-0.058,0.654-0.124,0.98-0.192
	c0.256-0.053,0.512-0.103,0.766-0.161c0.413-0.096,0.82-0.203,1.227-0.313c0.245-0.066,0.489-0.133,0.731-0.205
	c0.457-0.135,0.911-0.277,1.359-0.43c0.188-0.065,0.372-0.136,0.559-0.204c0.378-0.137,0.752-0.279,1.123-0.429
	c0.176-0.071,0.349-0.146,0.523-0.22c0.395-0.169,0.785-0.345,1.171-0.528c0.083-0.04,0.17-0.074,0.253-0.114V54.04z M55.741,34.671
	c0,1.132-0.421,2.204-1.154,2.942c-1.486,1.496-3.192,2.795-5.06,3.887c-0.001,0.001-0.003,0.001-0.004,0.002
	c-0.357,0.208-0.727,0.396-1.095,0.588v-5.202c2.595-0.762,5.054-1.741,7.313-2.944V34.671z M55.741,31.126
	c-2.228,1.315-4.69,2.393-7.313,3.22v-8.714h7.313V31.126z M55.741,23.166h-7.313V14.8c2.623,0.827,5.085,1.904,7.313,3.219V23.166z
	 M55.741,15.202c-2.259-1.203-4.718-2.183-7.313-2.944V7.022c2.303,1.204,4.387,2.709,6.159,4.493
	c0.733,0.738,1.154,1.81,1.154,2.942V15.202z"/>
<g>
</g>
<g>
</g>
<g>
</g>
<g>
</g>
<g>
</g>
<g>
</g>
<g>
</g>
<g>
</g>
<g>
</g>
<g>
</g>
<g>
</g>
<g>
</g>
<g>
</g>
<g>
</g>
<g>
</g>
</svg>
