<?xml version="1.0" encoding="iso-8859-1"?>
<!-- Generator: Adobe Illustrator 19.1.0, SVG Export Plug-In . SVG Version: 6.00 Build 0)  -->
<svg version="1.1" id="Capa_1" xmlns="http://www.w3.org/2000/svg" xmlns:xlink="http://www.w3.org/1999/xlink" x="0px" y="0px"
	 viewBox="0 0 34.339 34.339" style="enable-background:new 0 0 34.339 34.339;" xml:space="preserve">
<g>
	<path style="fill:#010002;" d="M27.055,12.321h-2.007l-0.029-1.253c1.722-0.801,2.598-2.177,2.598-4.106
		c0-2.242-1.914-4.066-4.267-4.066c-0.821,0-1.604,0.261-2.262,0.73c-0.722-1.221-2.051-2.042-3.568-2.042
		c-0.514,0-1.014,0.092-1.48,0.271C15.169,0.727,13.738,0,12.247,0C10.026,0,8.156,1.527,7.63,3.585
		c-0.512-0.016-1.011,0.057-1.48,0.218C5.611,3.987,5.325,4.573,5.51,5.111c0.185,0.537,0.769,0.825,1.309,0.64
		c0.426-0.147,0.898-0.146,1.403,0.002C8.533,5.845,8.868,5.785,9.129,5.59c0.26-0.194,0.412-0.5,0.412-0.824
		c0-1.492,1.214-2.706,2.706-2.706c1.058,0,2.091,0.655,2.457,1.558c0.119,0.296,0.37,0.52,0.678,0.606
		c0.309,0.086,0.639,0.024,0.894-0.167c0.36-0.271,0.791-0.414,1.245-0.414c1.148,0,2.081,0.934,2.081,2.081
		c0,0.48,0.332,0.896,0.799,1.004c0.468,0.108,0.947-0.121,1.157-0.553c0.372-0.764,1.043-1.22,1.793-1.22
		c1.196,0,2.208,0.919,2.208,2.006c0,1.233-0.513,1.935-1.758,2.388h-3.375c-0.568,0-1.029,0.462-1.029,1.03v5.756
		c0,0.32-0.139,0.482-0.414,0.482c-0.275,0-0.414-0.162-0.414-0.482c0-0.644,0.002-1.402,0.003-2.157
		c0.002-1.539,0.004-2.99-0.002-3.61c-0.008-0.564-0.467-1.018-1.03-1.018H7.419c-1.305,0-1.966-0.574-1.966-1.707
		c0-0.199,0.034-0.4,0.101-0.599c0.181-0.54-0.11-1.124-0.65-1.304C4.364,5.56,3.78,5.85,3.599,6.39
		c-0.137,0.41-0.207,0.832-0.207,1.253c0,1.938,1.142,3.284,2.975,3.654l-0.4,17.493c-0.903,0.442-1.537,1.466-1.537,2.657
		c0,1.595,1.136,2.892,2.531,2.892h17.473c1.395,0,2.53-1.297,2.53-2.892c0-1.19-0.634-2.213-1.535-2.656l-0.016-0.696h1.643
		c2.145,0,3.892-1.746,3.892-3.892v-7.99C30.947,14.067,29.201,12.321,27.055,12.321z M24.433,32.279H6.961
		c-0.188,0-0.472-0.331-0.472-0.831c0-0.5,0.284-0.831,0.472-0.831c0.568,0,1.029-0.461,1.029-1.03c0,0,0,0,0,0
		c0.004-0.033,0.021-0.062,0.022-0.096L8.425,11.41h8.089c0.001,0.719-0.001,1.652-0.003,2.565
		c-0.001,0.757-0.002,1.515-0.002,2.161c0,1.651,1.274,2.543,2.474,2.543c1.199,0,2.474-0.892,2.474-2.543V11.41h1.51l0.395,17.147
		h-9.033c-0.569,0-1.03,0.461-1.03,1.03c0,0.569,0.461,1.03,1.03,1.03h10.104c0.187,0,0.471,0.331,0.471,0.831
		C24.904,31.948,24.62,32.279,24.433,32.279z M28.887,24.203c0,1.01-0.821,1.832-1.831,1.832h-1.691l-0.268-11.654h1.959
		c1.01,0,1.831,0.822,1.831,1.832V24.203z"/>
	<path style="fill:#010002;" d="M11.765,28.557h-0.943c-0.569,0-1.03,0.461-1.03,1.03c0,0.569,0.461,1.03,1.03,1.03h0.943
		c0.569,0,1.03-0.461,1.03-1.03C12.796,29.018,12.335,28.557,11.765,28.557z"/>
</g>
<g>
</g>
<g>
</g>
<g>
</g>
<g>
</g>
<g>
</g>
<g>
</g>
<g>
</g>
<g>
</g>
<g>
</g>
<g>
</g>
<g>
</g>
<g>
</g>
<g>
</g>
<g>
</g>
<g>
</g>
</svg>
